# xmcd
#
# Track frame offsets: 
#        150
#        12539
#        25924
#        39938
#        51482
#        65330
#        79222
#        92531
#        102995
#        115120
#
# Disc length: 1691 seconds
#
# Revision: 0
# Processed by: cddbd v1.5.2PL0 Copyright (c) Steve Scherf et al.
# Submitted via: ExactAudioCopy v0.99pb5
#
DISCID=7a06990a
DTITLE=Lefty Frizzell - Remembering Lefty Frizzell
DYEAR=1975
DGENRE=Country
TTITLE0=I Love You A Thousand Ways
TTITLE1=If You've Got The Money I've Got The Time
TTITLE2=Always Late (With Your Kisses)
TTITLE3=Mom And Dad's Waltz
TTITLE4=The Long Black Veil
TTITLE5=Saginaw Michigan
TTITLE6=Travelin' Blues
TTITLE7=Give Me More, More, More Of Your Kisses
TTITLE8=Stranger
TTITLE9=Forbidden Lovers
EXTD=
EXTT0=
EXTT1=
EXTT2=
EXTT3=
EXTT4=
EXTT5=
EXTT6=
EXTT7=
EXTT8=
EXTT9=
PLAYORDER=
